<?xml version="1.0" encoding="utf-8"?>
<!-- Generator: Adobe Illustrator 16.0.0, SVG Export Plug-In . SVG Version: 6.00 Build 0)  -->
<!DOCTYPE svg PUBLIC "-//W3C//DTD SVG 1.1//EN" "http://www.w3.org/Graphics/SVG/1.1/DTD/svg11.dtd">
<svg version="1.1" id="Layer_1" xmlns="http://www.w3.org/2000/svg" xmlns:xlink="http://www.w3.org/1999/xlink" x="0px" y="0px"
	 width="385.863px" height="101.372px" viewBox="7.072 19.644 385.863 101.372"
	 enable-background="new 7.072 19.644 385.863 101.372" xml:space="preserve">
<g>
	<polygon fill="#FFFFFF" points="125.414,76.097 125.414,52.528 115.754,52.528 115.754,76.097 110.183,76.097 110.183,47.558 
		130.983,47.558 130.983,76.097 	"/>
	<polygon fill="#FFFFFF" points="141.644,76.097 141.644,47.558 160.443,47.558 160.443,52.528 147.215,52.528 147.215,59.222 
		158.478,59.222 158.478,64.192 147.215,64.192 147.215,71.123 160.443,71.123 160.443,76.097 	"/>
	<polygon fill="#FFFFFF" points="180.802,52.528 180.802,76.093 175.23,76.093 175.23,52.528 167.773,52.528 167.773,47.558 
		188.258,47.558 188.258,52.528 	"/>
	<path fill="#FFFFFF" d="M207.855,47.558c5.489,0,9.417,3.688,9.417,8.898c0,5.209-3.89,8.896-9.417,8.896h-5.495V76.09h-5.564
		V47.558H207.855z M207.572,60.343c2.484,0,4.135-1.521,4.135-3.887c0-2.361-1.646-3.926-4.135-3.926h-5.212v7.813H207.572
		L207.572,60.343z"/>
	<path fill="#FFFFFF" d="M246.086,62.871c0,3.729-0.04,7.453-2.85,10.338c-1.998,2.086-4.604,3.125-7.688,3.125
		c-3.091,0-5.733-1.08-7.734-3.125c-2.77-2.844-2.81-7.094-2.81-10.178v-2.363c0-5.688,0.604-7.976,2.81-10.222
		c2.001-2.044,4.646-3.128,7.734-3.128c3.041,0,5.688,1.084,7.688,3.128c2.009,2.044,2.85,4.769,2.85,9.38V62.871L246.086,62.871z
		 M239.114,53.812c-0.882-1-2.121-1.521-3.563-1.521c-1.445,0-2.729,0.521-3.607,1.521c-1.279,1.402-1.361,4.09-1.361,7.613v1.445
		c0,2.963,0.042,5.648,1.361,6.969c0.96,0.967,2.162,1.521,3.607,1.521c1.44,0,2.685-0.521,3.563-1.521
		c1.164-1.318,1.402-2.723,1.402-8.535C240.517,56.619,240.235,55.052,239.114,53.812"/>
	<path fill="#FFFFFF" d="M265.325,76.333c-3.125,0-5.688-1.119-7.693-3.123c-2.885-2.887-2.813-6.453-2.813-11.381
		c0-4.93-0.072-8.5,2.813-11.385c2.006-2.006,4.568-3.128,7.693-3.128c5.327,0,9.5,3.049,10.502,9.021h-5.652
		c-0.559-2.285-2.004-4.047-4.809-4.047c-1.521,0-2.769,0.561-3.569,1.479c-1.077,1.205-1.4,2.566-1.4,8.063
		c0,5.486,0.323,6.854,1.4,8.055c0.806,0.926,2.048,1.48,3.569,1.48c2.805,0,4.25-1.764,4.809-4.049h5.652
		C274.825,73.291,270.615,76.333,265.325,76.333"/>
	<polygon fill="#FFFFFF" points="295.144,52.528 295.144,76.093 289.576,76.093 289.576,52.528 282.118,52.528 282.118,47.558 
		302.598,47.558 302.598,52.528 	"/>
	<path fill="#FFFFFF" d="M322.195,47.558c5.487,0,9.419,3.688,9.419,8.898c0,5.209-3.89,8.896-9.419,8.896h-5.487V76.09h-5.568
		V47.558H322.195z M321.914,60.343c2.484,0,4.125-1.521,4.125-3.887c0-2.361-1.641-3.926-4.125-3.926h-5.209v7.813H321.914
		L321.914,60.343z"/>
	<path fill="#FFFFFF" d="M360.434,62.871c0,3.729-0.043,7.453-2.848,10.338c-2.009,2.086-4.61,3.125-7.696,3.125
		s-5.73-1.08-7.736-3.125c-2.76-2.844-2.803-7.094-2.803-10.178v-2.363c0-5.688,0.602-7.976,2.803-10.222
		c2.006-2.044,4.65-3.128,7.736-3.128c3.046,0,5.688,1.084,7.696,3.128c1.999,2.044,2.848,4.769,2.848,9.38V62.871z M353.463,53.812
		c-0.892-1-2.136-1.521-3.571-1.521c-1.44,0-2.729,0.521-3.606,1.521c-1.282,1.402-1.355,4.09-1.355,7.613v1.445
		c0,2.963,0.04,5.648,1.355,6.969c0.966,0.967,2.166,1.521,3.606,1.521c1.438,0,2.685-0.521,3.571-1.521
		c1.154-1.318,1.396-2.723,1.396-8.535C354.858,56.619,354.575,55.052,353.463,53.812"/>
	<polygon fill="#FFFFFF" points="386.199,76.097 386.199,57.778 375.1,76.097 370.13,76.097 370.13,47.558 375.698,47.558 
		375.698,65.835 386.802,47.558 391.772,47.558 391.772,76.097 	"/>
	<path fill="#CE4829" d="M112.092,99.365c-1.198,0-2.236-0.439-3.031-1.232c-1.136-1.135-1.117-2.416-1.117-4.635
		c0-2.222-0.019-3.5,1.117-4.638c0.794-0.793,1.833-1.229,3.031-1.229c2.124,0,3.709,1.246,4.112,3.552h-1.781
		c-0.271-1.17-1.052-1.979-2.331-1.979c-0.684,0-1.299,0.256-1.702,0.688c-0.568,0.619-0.695,1.284-0.695,3.603
		c0,2.313,0.127,2.979,0.695,3.598c0.403,0.439,1.021,0.695,1.702,0.695c1.279,0,2.076-0.81,2.35-1.979h1.768
		C115.819,98.115,114.182,99.365,112.092,99.365"/>
	<polygon fill="#CE4829" points="125.904,89.302 125.904,99.267 124.154,99.267 124.154,89.302 120.978,89.302 120.978,87.729 
		129.081,87.729 129.081,89.302 	"/>
	<path fill="#CE4829" d="M139.07,94.729h-2.627v4.535h-1.75V87.729h4.377c2.188,0,3.692,1.427,3.692,3.5
		C142.763,93.302,141.256,94.729,139.07,94.729 M138.956,89.302h-2.516v3.855h2.516c1.262,0,2.061-0.744,2.061-1.932
		C141.015,90.031,140.218,89.302,138.956,89.302"/>
	<path fill="#CE4829" d="M156.398,93.662c0,1.896-0.019,3.336-1.112,4.471c-0.799,0.813-1.833,1.229-3.052,1.229
		c-1.196,0-2.234-0.42-3.026-1.229c-1.104-1.114-1.12-2.688-1.12-4.403v-0.767c0-1.896,0.146-3.129,1.12-4.103
		c0.792-0.793,1.849-1.229,3.026-1.229c1.197,0,2.252,0.437,3.052,1.229c0.889,0.91,1.112,2.188,1.112,3.828V93.662z
		 M153.954,89.917c-0.458-0.473-1.058-0.715-1.723-0.715c-0.646,0-1.262,0.242-1.718,0.715c-0.646,0.682-0.664,1.813-0.664,3.289
		v0.986c0,1.184,0.048,2.271,0.664,2.887c0.471,0.467,1.055,0.713,1.718,0.713c0.682,0,1.28-0.246,1.723-0.713
		c0.68-0.713,0.68-1.736,0.68-3.695C154.633,91.634,154.599,90.599,153.954,89.917"/>
	<polygon fill="#CE4829" points="169.368,99.267 169.368,90.888 164.2,99.267 162.613,99.267 162.613,87.729 164.363,87.729 
		164.363,96.089 169.516,87.729 171.119,87.729 171.119,99.267 	"/>
	<polygon fill="#CE4829" points="181.661,89.302 181.661,99.267 179.911,99.267 179.911,89.302 176.732,89.302 176.732,87.729 
		184.835,87.729 184.835,89.302 	"/>
	<polygon fill="#CE4829" points="190.45,99.267 190.45,87.729 197.838,87.729 197.838,89.302 192.198,89.302 192.198,92.671 
		196.999,92.671 196.999,94.229 192.198,94.229 192.198,97.692 197.838,97.692 197.838,99.267 	"/>
	<path fill="#CE4829" d="M210.097,99.267v-9.965h-3.321v3.646c0,4.845-1.167,6.319-3.479,6.319h-0.731v-1.572h0.313
		c1.272,0,2.199-0.813,2.199-4.986v-4.979h6.771v11.537H210.097L210.097,99.267z"/>
	<path fill="#CE4829" d="M222.925,99.267h-4.427V87.729h1.749v4.53h2.678c2.199,0,3.658,1.433,3.658,3.505
		C226.583,97.839,225.107,99.267,222.925,99.267 M222.776,93.837h-2.526v3.854h2.526c1.279,0,2.041-0.729,2.041-1.93
		C224.817,94.585,224.056,93.837,222.776,93.837"/>
	<polygon fill="#CE4829" points="238.731,99.267 238.731,94.229 234.062,94.229 234.062,99.267 232.311,99.267 232.311,87.729 
		234.062,87.729 234.062,92.671 238.731,92.671 238.731,87.729 240.495,87.729 240.495,99.267 	"/>
	<path fill="#CE4829" d="M253.757,99.267l-0.813-2.314h-4.552l-0.813,2.314h-1.847l4.228-11.537h1.414l4.21,11.537H253.757z
		 M250.711,90.335l-1.813,5.123h3.576L250.711,90.335z"/>
	<path fill="#CE4829" d="M262.139,99.267h-2.069l2.516-4.859c-1.367-0.473-2.226-1.619-2.226-3.18c0-2.137,1.492-3.498,3.683-3.498
		h4.393v11.537h-1.771v-4.537h-2.282L262.139,99.267z M266.66,89.285h-2.512c-1.268,0-2.041,0.729-2.041,1.928
		c0,1.187,0.773,1.945,2.041,1.945h2.512V89.285z"/>
	<polygon fill="#CE4829" points="282.604,99.267 282.604,87.729 284.355,87.729 284.355,93.21 288.664,87.729 290.821,87.729 
		286.38,93.171 291.227,99.267 289.006,99.267 284.355,93.237 284.355,99.267 	"/>
	<path fill="#CE4829" d="M303.856,93.662c0,1.896-0.019,3.336-1.12,4.471c-0.792,0.813-1.829,1.229-3.048,1.229
		c-1.192,0-2.231-0.42-3.031-1.229c-1.099-1.114-1.109-2.688-1.109-4.403v-0.767c0-1.896,0.144-3.129,1.109-4.103
		c0.8-0.793,1.854-1.229,3.031-1.229c1.202,0,2.256,0.437,3.048,1.229c0.895,0.91,1.12,2.188,1.12,3.828V93.662z M301.409,89.917
		c-0.455-0.473-1.059-0.715-1.724-0.715c-0.646,0-1.261,0.242-1.716,0.715c-0.648,0.682-0.665,1.813-0.665,3.289v0.986
		c0,1.184,0.048,2.271,0.665,2.887c0.469,0.467,1.052,0.713,1.716,0.713c0.687,0,1.282-0.246,1.724-0.713
		c0.679-0.713,0.679-1.736,0.679-3.695C302.088,91.634,302.053,90.599,301.409,89.917"/>
	<polygon fill="#CE4829" points="318.478,99.267 318.478,91.552 315.819,97.175 314.524,97.175 311.816,91.552 311.816,99.267 
		310.069,99.267 310.069,87.729 311.802,87.729 315.177,94.908 318.491,87.729 320.24,87.729 320.24,99.267 	"/>
	<polygon fill="#CE4829" points="333.281,99.267 333.281,89.302 328.615,89.302 328.615,99.267 326.862,99.267 326.862,87.729 
		335.027,87.729 335.027,99.267 	"/>
	<path fill="#CE4829" d="M348.308,99.267l-0.806-2.314h-4.562l-0.809,2.314h-1.851l4.229-11.537h1.409l4.215,11.537H348.308z
		 M345.265,90.335l-1.817,5.123h3.583L345.265,90.335z"/>
	<polygon fill="#CE4829" points="361.83,99.267 361.83,94.229 357.163,94.229 357.163,99.267 355.414,99.267 355.414,87.729 
		357.163,87.729 357.163,92.671 361.83,92.671 361.83,87.729 363.597,87.729 363.597,99.267 	"/>
	<polygon fill="#CE4829" points="376.976,99.267 376.976,90.888 371.807,99.267 370.215,99.267 370.215,87.729 371.967,87.729 
		371.967,96.089 377.119,87.729 378.728,87.729 378.728,99.267 	"/>
	<path fill="#CE4829" d="M386.643,99.267h-2.076l2.513-4.859c-1.357-0.473-2.221-1.619-2.221-3.18c0-2.137,1.49-3.498,3.68-3.498
		h4.396v11.537h-1.771v-4.537h-2.284L386.643,99.267z M391.161,89.285h-2.516c-1.263,0-2.039,0.729-2.039,1.928
		c0,1.187,0.776,1.945,2.039,1.945h2.516V89.285z"/>
	<polygon fill="#CE4829" points="374.062,25.833 387.569,25.833 380.818,41.291 	"/>
	
		<rect x="4.697" y="90.225" transform="matrix(-0.7071 -0.7071 0.7071 -0.7071 -16.6492 188.136)" fill="#FFFFFF" width="51.885" height="14.583"/>
	
		<rect x="46.257" y="82.863" transform="matrix(-0.7071 0.7071 -0.7071 -0.7071 173.6622 108.3793)" fill="#FFFFFF" width="36.256" height="14.587"/>
	
		<rect x="19.884" y="56.484" transform="matrix(-0.7071 0.7071 -0.7071 -0.7071 109.9928 81.9975)" fill="#FFFFFF" width="36.259" height="14.59"/>
	
		<rect x="32.997" y="69.592" transform="matrix(-0.707 0.7072 -0.7072 -0.707 141.6462 95.0847)" fill="#C64D2C" width="36.259" height="14.584"/>
	
		<rect x="6.919" y="43.519" transform="matrix(-0.7071 0.7071 -0.7071 -0.7071 78.6885 69.0311)" fill="#C64D2C" width="36.257" height="14.587"/>
	
		<rect x="33.209" y="35.703" transform="matrix(-0.7071 -0.7071 0.7071 -0.7071 70.2171 115.081)" fill="#C64D2C" width="51.467" height="14.59"/>
</g>
</svg>
